<?xml version="1.0" encoding="utf-8"?>
<svg xml:space="preserve" viewBox="0 0 100 100" y="0" x="0" xmlns="http://www.w3.org/2000/svg" id="Layer_1" version="1.1" style="height: 100%; width: 100%; background: rgb(255, 255, 255); shape-rendering: auto;" width="301px" height="301px"><g class="ldl-scale" style="transform-origin: 50% 50%; transform: rotate(0deg) scale(0.8, 0.8);"><g class="ldl-ani"><g class="ldl-layer"><g class="ldl-ani" style="transform-origin: 50px 50px; transform: scale(0.91); animation: 2.43902s linear -1.82927s infinite normal forwards running breath-57815a5e-8163-4440-a199-f38d91e4c5d8;"><circle fill="#333" r="40" cy="50" cx="50" style="fill: rgb(51, 51, 51);"></circle></g></g><g class="ldl-layer"><g class="ldl-ani" style="transform-origin: 50px 50px; transform: scale(0.91); animation: 2.43902s linear -2.43902s infinite normal forwards running breath-57815a5e-8163-4440-a199-f38d91e4c5d8;"><path fill="#fff" d="M67.683 30.297c-.191-.825-.783-1.577-1.624-2.062L63.055 26.5c-.84-.485-1.787-.622-2.598-.376-.612.186-1.094.585-1.358 1.121l-2.814 5.737c-.383.781-.243 1.697.288 2.471l-4.784 8.285c-2.55-.972-4.952-1.138-6.837-.432-1.65.619-2.841 1.882-3.445 3.651l-1.252 3.665a4.86 4.86 0 0 1-1.5 2.177l-3.884 3.26c-1.881 1.58-2.823 4.053-2.583 6.787.296 3.38 2.29 6.447 5.332 8.204l2.572 1.485a10.874 10.874 0 0 0 5.432 1.469c1.49 0 2.972-.316 4.339-.953 2.487-1.16 4.159-3.212 4.586-5.631l.882-4.993a4.857 4.857 0 0 1 1.135-2.388l2.548-2.917c1.23-1.408 1.728-3.071 1.439-4.809-.33-1.985-1.675-3.983-3.792-5.705l4.783-8.285c.082.006.166.017.247.017.839 0 1.595-.345 2.038-1.004l3.561-5.305c.333-.495.437-1.111.293-1.734zm-17.597 27.3a3.629 3.629 0 0 1-.365 2.771 3.63 3.63 0 0 1-2.218 1.702 3.629 3.629 0 0 1-2.771-.365 3.63 3.63 0 0 1-1.702-2.217 3.624 3.624 0 0 1 .365-2.771 3.63 3.63 0 0 1 3.049-1.82c.04-.001.08-.008.119-.008.351 0 .698.056 1.034.157l1.452.839a3.631 3.631 0 0 1 1.037 1.712zm-3.883 9.244l-.949 1.644-6.655-3.842.949-1.644 6.655 3.842zm19.611-35.866l-1.555 2.316-2.006 2.989c-.083.124-.359.192-.701.133a1.785 1.785 0 0 1-.59-.215l-.286-.165-1.684-.972-.286-.165a1.788 1.788 0 0 1-.481-.403c-.222-.267-.301-.54-.235-.674l1.585-3.232 1.229-2.505c.038-.077.133-.119.206-.141a.946.946 0 0 1 .274-.037c.227 0 .516.064.822.24l3.004 1.734c.449.259.669.608.724.847.017.075.028.179-.02.25z" style="fill: rgb(255, 255, 255);"></path></g></g><metadata xmlns:d="https://loading.io/stock/">
<d:name>band</d:name>
<d:tags>band,guitar,bass,musician,music,musical instrument,composer,player,rock star,pop music</d:tags>
<d:license>by</d:license>
<d:slug>5sskxx</d:slug>
</metadata></g></g><style id="breath-57815a5e-8163-4440-a199-f38d91e4c5d8" data-anikit="">@keyframes breath-57815a5e-8163-4440-a199-f38d91e4c5d8
{
  0% {
    animation-timing-function: cubic-bezier(0.9647,0.2413,-0.0705,0.7911);
    transform: scale(0.9099999999999999);
  }
  51% {
    animation-timing-function: cubic-bezier(0.9226,0.2631,-0.0308,0.7628);
    transform: scale(1.02994);
  }
  100% {
    transform: scale(0.9099999999999999);
  }
}</style><!-- [ldio] generated by https://loading.io/ --></svg>